Genre:Adventure | Biography | Drama
Language:English  http://www.imdb.com/title/tt1542344/
Source:DVDSCR.T0XiC-iNK Thx.


Format : MPEG-4
Format profile : Base Media
Codec ID : isom
File size : 1.10 GiB
Duration : 1h 32mn
Overall bit rate : 1 694 Kbps
Movie name : 127.Hours.2010.DvDScr.H264.Feel-Free


Video
Format settings, CABAC : Yes
Format settings, ReFrames : 4 frames
Format settings, GOP : M=4, N=32
Codec ID : avc1
Codec ID/Info : Advanced Video Coding
Duration : 1h 32mn
Bit rate mode : Variable
Bit rate : 1 500 Kbps
Width : 720 pixels
Height : 384 pixels
Display aspect ratio : 1.875
Frame rate mode : Constant
Frame rate : 29.970 fps
Color space : YUV
Chroma subsampling : 4:2:0
Bit depth : 8 bits
Scan type : Progressive
Bits/(Pixel*Frame) : 0.181
Stream size : 1 010 MiB (90%)

Audio
ID : 2
Format : AAC
Format/Info : Advanced Audio Codec
Format version : Version 4
Format profile : LC
Codec ID : 40
Duration : 1h 32mn
Bit rate mode : Variable
Bit rate : 165 Kbps
Channel(s) : 2 channels
Channel positions : Front: L R
Sampling rate : 48.0 KHz
Stream size : 110 MiB (10%)


Plot:
A mountain climber becomes trapped under a boulder while canyoneering alone near Moab, Utah and resorts to desperate measures in order to survive
 
http://shareimage.org/images/6ryajl35ql3zoe5lvpw.png 
http://shareimage.org/images/z153k4p4szdmhvogsu7a.png 
http://shareimage.org/images/8rr9gl5eo5e2lz4v2bzp.png 
http://shareimage.org/images/lffcnwi8yiinag473r73.png 
http://shareimage.org/images/3g3oxt7srn3uasedcn1f.png